<svg
  id="chart"
  width="1000"
  height="500"
  viewBox="0 0 1000 500"
  xmlns="http://www.w3.org/2000/svg"
>
  
  <path d="M 0,9.335684305399178 C 10.600000000000001,11.333277841937164 31.799999999999997,11.080837758110421 53,19.323651988089107 C 74.2,27.566466218067795 84.8,39.33063177463673 106,50.549755455292605 C 127.2,61.76887913594848 137.8,73.15484105171323 159,75.41927039136851 C 180.2,77.68369973102381 190.8,52.25659768932025 212,61.87190215356904 C 233.2,71.48720661781783 243.8,118.84759316344207 265,123.49579271261246 C 286.2,128.14399226178284 296.8,90.36185185536546 318,85.11289989942101 C 339.2,79.86394794347656 349.8,75.58947363973438 371,97.25103293289021 C 392.2,118.91259222604604 402.8,171.59898085406124 424,193.42069636520017 C 445.2,215.2424118763391 455.8,214.46002846348472 477,206.3596104885849 C 498.2,198.25919251368512 508.8,139.33372769493093 530,152.9186064907012 C 551.2,166.50348528647146 561.8,268.94918727042784 583,274.28400446743626 C 604.2,279.6188216644447 614.8,186.5978852403182 636,179.5926924757432 C 657.2,172.58749971116822 667.8,237.62259762337155 689,239.25804064456136 C 710.2,240.89348366575118 720.8,185.15735487782808 742,187.76990758169228 C 763.2,190.38246028555648 773.8,227.11450285021607 795,252.32080416388234 C 816.2,277.5271054775486 826.8,300.936610014925 848,313.8014141500236 C 869.2,326.6662182851222 879.8,330.0557476394463 901,316.6448248393753 C 922.2,303.2339020393043 932.8,226.25182071553877 954,246.74680014966887 C 975.2,267.241779583799 996.4,384.64513763795446 1007,419.11972201002584,L 1000 500,L 0 500Z" fill="#f7455f1a" />
  <path d="M 0,9.335684305399178 C 10.600000000000001,11.333277841937164 31.799999999999997,11.080837758110421 53,19.323651988089107 C 74.2,27.566466218067795 84.8,39.33063177463673 106,50.549755455292605 C 127.2,61.76887913594848 137.8,73.15484105171323 159,75.41927039136851 C 180.2,77.68369973102381 190.8,52.25659768932025 212,61.87190215356904 C 233.2,71.48720661781783 243.8,118.84759316344207 265,123.49579271261246 C 286.2,128.14399226178284 296.8,90.36185185536546 318,85.11289989942101 C 339.2,79.86394794347656 349.8,75.58947363973438 371,97.25103293289021 C 392.2,118.91259222604604 402.8,171.59898085406124 424,193.42069636520017 C 445.2,215.2424118763391 455.8,214.46002846348472 477,206.3596104885849 C 498.2,198.25919251368512 508.8,139.33372769493093 530,152.9186064907012 C 551.2,166.50348528647146 561.8,268.94918727042784 583,274.28400446743626 C 604.2,279.6188216644447 614.8,186.5978852403182 636,179.5926924757432 C 657.2,172.58749971116822 667.8,237.62259762337155 689,239.25804064456136 C 710.2,240.89348366575118 720.8,185.15735487782808 742,187.76990758169228 C 763.2,190.38246028555648 773.8,227.11450285021607 795,252.32080416388234 C 816.2,277.5271054775486 826.8,300.936610014925 848,313.8014141500236 C 869.2,326.6662182851222 879.8,330.0557476394463 901,316.6448248393753 C 922.2,303.2339020393043 932.8,226.25182071553877 954,246.74680014966887 C 975.2,267.241779583799 996.4,384.64513763795446 1007,419.11972201002584" fill="none" stroke="#f7455f" stroke-width="4px" />
  <g>
  
  </g>
</svg>