<svg
  id="chart"
  width="1000"
  height="500"
  viewBox="0 0 1000 500"
  xmlns="http://www.w3.org/2000/svg"
>
  
  <path d="M 0,495.9914433494004 C 10.6,492.48920735225954 31.8,484.2300037105045 53,478.48026336369594 C 74.2,472.7305230168874 84.8,476.6680180178922 106,467.2427416153577 C 127.2,457.8174652128232 137.8,441.3728525348244 159,431.3538813510235 C 180.2,421.33491016722263 190.8,420.1033913663937 212,417.14788569635334 C 233.2,414.192380026313 243.8,429.678684464859 265,416.5763530008219 C 286.2,403.4740215367848 296.8,359.9497605944608 318,351.636228376168 C 339.2,343.32269615787516 349.8,386.07018495825946 371,375.0086919093578 C 392.2,363.9471988604562 402.8,316.78376107281167 424,296.3287631316597 C 445.2,275.8737651905077 455.8,270.55194040965586 477,272.7337022035979 C 498.2,274.9154639975399 508.8,290.92081536562773 530,307.2375721013697 C 551.2,323.5543288371117 561.8,370.44429176526353 583,354.3174858823079 C 604.2,338.19067999935226 614.8,245.5573703954132 636,226.60354268659148 C 657.2,207.64971497776978 667.8,273.26076735647996 689,259.5483473381994 C 710.2,245.83592731991885 720.8,182.33081110026217 742,158.04144259518876 C 763.2,133.75207409011537 773.8,120.79170903021793 795,138.10150481283245 C 816.2,155.41130059544696 826.8,228.99055265069447 848,244.5904215082613 C 869.2,260.19029036582816 879.8,253.55807991790755 901,216.10084910066666 C 922.2,178.64361828342578 932.8,74.78642530503937 954,57.30426742205685 C 975.2,39.82210953907433 996.4,114.41290123301464 1007,128.69005968575408,L 1000 500,L 0 500Z" fill="#1890ff1a" />
  <path d="M 0,495.9914433494004 C 10.6,492.48920735225954 31.8,484.2300037105045 53,478.48026336369594 C 74.2,472.7305230168874 84.8,476.6680180178922 106,467.2427416153577 C 127.2,457.8174652128232 137.8,441.3728525348244 159,431.3538813510235 C 180.2,421.33491016722263 190.8,420.1033913663937 212,417.14788569635334 C 233.2,414.192380026313 243.8,429.678684464859 265,416.5763530008219 C 286.2,403.4740215367848 296.8,359.9497605944608 318,351.636228376168 C 339.2,343.32269615787516 349.8,386.07018495825946 371,375.0086919093578 C 392.2,363.9471988604562 402.8,316.78376107281167 424,296.3287631316597 C 445.2,275.8737651905077 455.8,270.55194040965586 477,272.7337022035979 C 498.2,274.9154639975399 508.8,290.92081536562773 530,307.2375721013697 C 551.2,323.5543288371117 561.8,370.44429176526353 583,354.3174858823079 C 604.2,338.19067999935226 614.8,245.5573703954132 636,226.60354268659148 C 657.2,207.64971497776978 667.8,273.26076735647996 689,259.5483473381994 C 710.2,245.83592731991885 720.8,182.33081110026217 742,158.04144259518876 C 763.2,133.75207409011537 773.8,120.79170903021793 795,138.10150481283245 C 816.2,155.41130059544696 826.8,228.99055265069447 848,244.5904215082613 C 869.2,260.19029036582816 879.8,253.55807991790755 901,216.10084910066666 C 922.2,178.64361828342578 932.8,74.78642530503937 954,57.30426742205685 C 975.2,39.82210953907433 996.4,114.41290123301464 1007,128.69005968575408" fill="none" stroke="#1890ff" stroke-width="4px" />
  <g>
  		<circle cx="0" cy="495.9914433494004" r="8" fill="#1890ff" />,		<circle cx="53" cy="478.48026336369594" r="8" fill="#1890ff" />,		<circle cx="106" cy="467.2427416153577" r="8" fill="#1890ff" />,		<circle cx="159" cy="431.3538813510235" r="8" fill="#1890ff" />,		<circle cx="212" cy="417.14788569635334" r="8" fill="#1890ff" />,		<circle cx="265" cy="416.5763530008219" r="8" fill="#1890ff" />,		<circle cx="318" cy="351.636228376168" r="8" fill="#1890ff" />,		<circle cx="371" cy="375.0086919093578" r="8" fill="#1890ff" />,		<circle cx="424" cy="296.3287631316597" r="8" fill="#1890ff" />,		<circle cx="477" cy="272.7337022035979" r="8" fill="#1890ff" />,		<circle cx="530" cy="307.2375721013697" r="8" fill="#1890ff" />,		<circle cx="583" cy="354.3174858823079" r="8" fill="#1890ff" />,		<circle cx="636" cy="226.60354268659148" r="8" fill="#1890ff" />,		<circle cx="689" cy="259.5483473381994" r="8" fill="#1890ff" />,		<circle cx="742" cy="158.04144259518876" r="8" fill="#1890ff" />,		<circle cx="795" cy="138.10150481283245" r="8" fill="#1890ff" />,		<circle cx="848" cy="244.5904215082613" r="8" fill="#1890ff" />,		<circle cx="901" cy="216.10084910066666" r="8" fill="#1890ff" />,		<circle cx="954" cy="57.30426742205685" r="8" fill="#1890ff" />,		<circle cx="1007" cy="128.69005968575408" r="8" fill="#1890ff" />
  </g>
</svg>