<svg
  id="chart"
  width="1000"
  height="500"
  viewBox="0 0 1000 500"
  xmlns="http://www.w3.org/2000/svg"
>  
  		  
  <path d="  M0,500  h44.44444444444445  v-484.7823308563562  q0,-1 -1,-1  h-42.44444444444445  q-1,0 -1,1  Z" fill="#444cf7" />
<path d="  M55.55555555555556,500  h44.44444444444445  v-477.8623393503459  q0,-1 -1,-1  h-42.44444444444445  q-1,0 -1,1  Z" fill="#444cf7" />
<path d="  M111.11111111111111,500  h44.44444444444445  v-467.62345979257225  q0,-1 -1,-1  h-42.44444444444445  q-1,0 -1,1  Z" fill="#444cf7" />
<path d="  M166.66666666666669,500  h44.44444444444445  v-437.9601451538291  q0,-1 -1,-1  h-42.44444444444445  q-1,0 -1,1  Z" fill="#444cf7" />
<path d="  M222.22222222222223,500  h44.44444444444445  v-439.30025263540233  q0,-1 -1,-1  h-42.44444444444445  q-1,0 -1,1  Z" fill="#444cf7" />
<path d="  M277.77777777777777,500  h44.44444444444445  v-367.4978017081989  q0,-1 -1,-1  h-42.44444444444445  q-1,0 -1,1  Z" fill="#444cf7" />
<path d="  M333.33333333333337,500  h44.44444444444445  v-373.10598167275776  q0,-1 -1,-1  h-42.44444444444445  q-1,0 -1,1  Z" fill="#444cf7" />
<path d="  M388.8888888888889,500  h44.44444444444445  v-379.6881553398722  q0,-1 -1,-1  h-42.44444444444445  q-1,0 -1,1  Z" fill="#444cf7" />
<path d="  M444.44444444444446,500  h44.44444444444445  v-322.49672421480125  q0,-1 -1,-1  h-42.44444444444445  q-1,0 -1,1  Z" fill="#444cf7" />
<path d="  M500,500  h44.44444444444445  v-343.7574563088821  q0,-1 -1,-1  h-42.44444444444445  q-1,0 -1,1  Z" fill="#444cf7" />
<path d="  M555.5555555555555,500  h44.44444444444445  v-303.27495790031276  q0,-1 -1,-1  h-42.44444444444445  q-1,0 -1,1  Z" fill="#444cf7" />
<path d="  M611.1111111111111,500  h44.44444444444445  v-217.41025584805874  q0,-1 -1,-1  h-42.44444444444445  q-1,0 -1,1  Z" fill="#444cf7" />
<path d="  M666.6666666666667,500  h44.44444444444445  v-221.65159467748504  q0,-1 -1,-1  h-42.44444444444445  q-1,0 -1,1  Z" fill="#444cf7" />
<path d="  M722.2222222222223,500  h44.44444444444445  v-244.48789575725203  q0,-1 -1,-1  h-42.44444444444445  q-1,0 -1,1  Z" fill="#444cf7" />
<path d="  M777.7777777777778,500  h44.44444444444445  v-229.29935458704097  q0,-1 -1,-1  h-42.44444444444445  q-1,0 -1,1  Z" fill="#444cf7" />
<path d="  M833.3333333333334,500  h44.44444444444445  v-95.52964377890089  q0,-1 -1,-1  h-42.44444444444445  q-1,0 -1,1  Z" fill="#444cf7" />
<path d="  M888.8888888888889,500  h44.44444444444445  v-173.2612061894435  q0,-1 -1,-1  h-42.44444444444445  q-1,0 -1,1  Z" fill="#444cf7" />
<path d="  M944.4444444444445,500  h44.44444444444445  v-16.431463485300583  q0,-1 -1,-1  h-42.44444444444445  q-1,0 -1,1  Z" fill="#444cf7" />
</svg>