<svg
  id="chart"
  width="1000"
  height="500"
  viewBox="0 0 1000 500"
  xmlns="http://www.w3.org/2000/svg"
>  
  		  
  <path d="  M0,500  h44.44444444444445  v-255.59950569269853  q0,-1 -1,-1  h-42.44444444444445  q-1,0 -1,1  Z" fill="#444cf7" />
<path d="  M55.55555555555556,500  h44.44444444444445  v-265.0155466884383  q0,-1 -1,-1  h-42.44444444444445  q-1,0 -1,1  Z" fill="#444cf7" />
<path d="  M111.11111111111111,500  h44.44444444444445  v-156.74590328809109  q0,-1 -1,-1  h-42.44444444444445  q-1,0 -1,1  Z" fill="#444cf7" />
<path d="  M166.66666666666669,500  h44.44444444444445  v-140.75743537513858  q0,-1 -1,-1  h-42.44444444444445  q-1,0 -1,1  Z" fill="#444cf7" />
<path d="  M222.22222222222223,500  h44.44444444444445  v-226.54555487916156  q0,-1 -1,-1  h-42.44444444444445  q-1,0 -1,1  Z" fill="#444cf7" />
<path d="  M277.77777777777777,500  h44.44444444444445  v-193.90201796153588  q0,-1 -1,-1  h-42.44444444444445  q-1,0 -1,1  Z" fill="#444cf7" />
<path d="  M333.33333333333337,500  h44.44444444444445  v-277.0373943676387  q0,-1 -1,-1  h-42.44444444444445  q-1,0 -1,1  Z" fill="#444cf7" />
<path d="  M388.8888888888889,500  h44.44444444444445  v-105.67725414749384  q0,-1 -1,-1  h-42.44444444444445  q-1,0 -1,1  Z" fill="#444cf7" />
<path d="  M444.44444444444446,500  h44.44444444444445  v-433.31983665912753  q0,-1 -1,-1  h-42.44444444444445  q-1,0 -1,1  Z" fill="#444cf7" />
<path d="  M500,500  h44.44444444444445  v-112.87907173097113  q0,-1 -1,-1  h-42.44444444444445  q-1,0 -1,1  Z" fill="#444cf7" />
<path d="  M555.5555555555555,500  h44.44444444444445  v-432.3081148086757  q0,-1 -1,-1  h-42.44444444444445  q-1,0 -1,1  Z" fill="#444cf7" />
<path d="  M611.1111111111111,500  h44.44444444444445  v-401.6885092199819  q0,-1 -1,-1  h-42.44444444444445  q-1,0 -1,1  Z" fill="#444cf7" />
<path d="  M666.6666666666667,500  h44.44444444444445  v-188.58709859602982  q0,-1 -1,-1  h-42.44444444444445  q-1,0 -1,1  Z" fill="#444cf7" />
<path d="  M722.2222222222223,500  h44.44444444444445  v-345.28155299612774  q0,-1 -1,-1  h-42.44444444444445  q-1,0 -1,1  Z" fill="#444cf7" />
<path d="  M777.7777777777778,500  h44.44444444444445  v-382.2204854479763  q0,-1 -1,-1  h-42.44444444444445  q-1,0 -1,1  Z" fill="#444cf7" />
<path d="  M833.3333333333334,500  h44.44444444444445  v-233.1865699716164  q0,-1 -1,-1  h-42.44444444444445  q-1,0 -1,1  Z" fill="#444cf7" />
<path d="  M888.8888888888889,500  h44.44444444444445  v-115.57588127557165  q0,-1 -1,-1  h-42.44444444444445  q-1,0 -1,1  Z" fill="#444cf7" />
<path d="  M944.4444444444445,500  h44.44444444444445  v-358.33056941870956  q0,-1 -1,-1  h-42.44444444444445  q-1,0 -1,1  Z" fill="#444cf7" />
</svg>